PathFileType	4	(X/Y/Z)	C:\Users\italobelli\Desktop\GitHub\PTbot_officialCBL\Personal_Results\SHRUG22_noisy1.trc
DataRate	CameraRate	NumFrames	NumMarkers	Units	OrigDataRate	OrigDataStartFrame	OrigNumFrames
110.888889	110.888889	46	9	m	110.888889	1	500
Frame#	Time		gu		centelbow		EpL		centpxt8		centijc7		ij		ts		aa		ai
			X1	Y1	Z1	X2	Y2	Z2	X3	Y3	Z3	X4	Y4	Z4	X5	Y5	Z5	X6	Y6	Z6	X7	Y7	Z7	X8	Y8	Z8	X9	Y9	Z9

1	0	-0.08334	-0.016317	0.16417	-0.11357	-0.26355	0.177	-0.098143	-0.25952	0.20502	-0.046816	-0.15316	-0.008669	-0.046816	0.031938	-0.008669	0	0	0	-0.13669	0.028104	0.050133	-0.10968	0.019363	0.16597	-0.15909	-0.083157	0.052326
2	0.009018	-0.083352	-0.016328	0.16414	-0.11368	-0.26359	0.17693	-0.098248	-0.25956	0.20495	-0.046816	-0.15316	-0.008669	-0.046816	0.031938	-0.008669	0	0	0	-0.13668	0.028095	0.050129	-0.10967	0.019346	0.16597	-0.15909	-0.083164	0.052314
3	0.018036	-0.083364	-0.016339	0.16411	-0.11378	-0.26363	0.17686	-0.098353	-0.25961	0.20488	-0.046816	-0.15316	-0.008669	-0.046816	0.031938	-0.008669	0	0	0	-0.13668	0.028086	0.050125	-0.10967	0.01933	0.16596	-0.1591	-0.08317	0.052303
4	0.027054	-0.083377	-0.016348	0.16408	-0.11388	-0.26367	0.1768	-0.098457	-0.25965	0.20482	-0.046816	-0.15316	-0.008669	-0.046816	0.031938	-0.008669	0	0	0	-0.13667	0.028079	0.05012	-0.10966	0.019315	0.16596	-0.1591	-0.083175	0.052291
5	0.036072	-0.08339	-0.016356	0.16405	-0.11399	-0.26371	0.17674	-0.098561	-0.25968	0.20476	-0.046816	-0.15316	-0.008669	-0.046816	0.031938	-0.008669	0	0	0	-0.13666	0.028072	0.050115	-0.10966	0.019302	0.16595	-0.15911	-0.08318	0.05228
6	0.04509	-0.083404	-0.016364	0.16403	-0.11409	-0.26374	0.17668	-0.098664	-0.25972	0.2047	-0.046816	-0.15316	-0.008669	-0.046816	0.031938	-0.008669	0	0	0	-0.13666	0.028066	0.05011	-0.10966	0.01929	0.16595	-0.15911	-0.083183	0.052268
7	0.054108	-0.083419	-0.016371	0.164	-0.1142	-0.26377	0.17662	-0.098767	-0.25975	0.20464	-0.046816	-0.15316	-0.008669	-0.046816	0.031938	-0.008669	0	0	0	-0.13665	0.02806	0.050104	-0.10966	0.01928	0.16594	-0.15912	-0.083186	0.052257
8	0.063126	-0.083434	-0.016377	0.16398	-0.1143	-0.2638	0.17657	-0.09887	-0.25978	0.20459	-0.046816	-0.15316	-0.008669	-0.046816	0.031938	-0.008669	0	0	0	-0.13664	0.028056	0.050098	-0.10966	0.01927	0.16594	-0.15912	-0.083188	0.052246
9	0.072144	-0.083449	-0.016382	0.16395	-0.1144	-0.26383	0.17652	-0.098972	-0.25981	0.20454	-0.046816	-0.15316	-0.008669	-0.046816	0.031938	-0.008669	0	0	0	-0.13664	0.028052	0.050091	-0.10966	0.019262	0.16593	-0.15913	-0.08319	0.052234
10	0.081162	-0.083465	-0.016386	0.16393	-0.11451	-0.26386	0.17647	-0.099075	-0.25984	0.20449	-0.046816	-0.15316	-0.008669	-0.046816	0.031938	-0.008669	0	0	0	-0.13663	0.028049	0.050084	-0.10966	0.019255	0.16593	-0.15914	-0.08319	0.052223
11	0.09018	-0.083481	-0.01639	0.16391	-0.11461	-0.26388	0.17642	-0.099176	-0.25986	0.20445	-0.046816	-0.15316	-0.008669	-0.046816	0.031938	-0.008669	0	0	0	-0.13663	0.028046	0.050076	-0.10967	0.019249	0.16592	-0.15914	-0.08319	0.052212
12	0.099198	-0.083498	-0.016392	0.16388	-0.11471	-0.2639	0.17638	-0.099278	-0.25988	0.2044	-0.046816	-0.15316	-0.008669	-0.046816	0.031938	-0.008669	0	0	0	-0.13662	0.028044	0.050068	-0.10967	0.019245	0.16592	-0.15915	-0.083189	0.052201
13	0.10822	-0.083515	-0.016394	0.16386	-0.11481	-0.26392	0.17634	-0.099379	-0.2599	0.20436	-0.046816	-0.15316	-0.008669	-0.046816	0.031938	-0.008669	0	0	0	-0.13662	0.028043	0.05006	-0.10967	0.019241	0.16591	-0.15916	-0.083188	0.052189
14	0.11723	-0.083533	-0.016396	0.16384	-0.11492	-0.26394	0.1763	-0.09948	-0.25992	0.20433	-0.046816	-0.15316	-0.008669	-0.046816	0.031938	-0.008669	0	0	0	-0.13661	0.028043	0.050052	-0.10968	0.019238	0.1659	-0.15916	-0.083186	0.052178
15	0.12625	-0.083551	-0.016397	0.16382	-0.11502	-0.26396	0.17627	-0.099581	-0.25994	0.20429	-0.046816	-0.15316	-0.008669	-0.046816	0.031938	-0.008669	0	0	0	-0.13661	0.028043	0.050043	-0.10968	0.019237	0.1659	-0.15917	-0.083183	0.052167
16	0.13527	-0.083569	-0.016397	0.1638	-0.11512	-0.26398	0.17623	-0.099681	-0.25996	0.20426	-0.046816	-0.15316	-0.008669	-0.046816	0.031938	-0.008669	0	0	0	-0.1366	0.028043	0.050034	-0.10969	0.019236	0.16589	-0.15918	-0.083179	0.052156
17	0.14429	-0.083588	-0.016396	0.16379	-0.11522	-0.26399	0.1762	-0.099781	-0.25997	0.20423	-0.046816	-0.15316	-0.008669	-0.046816	0.031938	-0.008669	0	0	0	-0.1366	0.028044	0.050025	-0.1097	0.019236	0.16588	-0.15918	-0.083175	0.052145
18	0.15331	-0.083607	-0.016395	0.16377	-0.11532	-0.264	0.17617	-0.099881	-0.25998	0.2042	-0.046816	-0.15316	-0.008669	-0.046816	0.031938	-0.008669	0	0	0	-0.1366	0.028046	0.050015	-0.10971	0.019237	0.16588	-0.15919	-0.083171	0.052134
19	0.16232	-0.083626	-0.016394	0.16375	-0.11542	-0.26401	0.17615	-0.099981	-0.25999	0.20418	-0.046816	-0.15316	-0.008669	-0.046816	0.031938	-0.008669	0	0	0	-0.13659	0.028048	0.050005	-0.10972	0.019239	0.16587	-0.1592	-0.083166	0.052123
20	0.17134	-0.083646	-0.016392	0.16374	-0.11552	-0.26402	0.17613	-0.10008	-0.26	0.20416	-0.046816	-0.15316	-0.008669	-0.046816	0.031938	-0.008669	0	0	0	-0.13659	0.028051	0.049995	-0.10973	0.019242	0.16586	-0.15921	-0.08316	0.052112
21	0.18036	-0.083666	-0.016389	0.16372	-0.11562	-0.26403	0.17611	-0.10018	-0.26001	0.20414	-0.046816	-0.15316	-0.008669	-0.046816	0.031938	-0.008669	0	0	0	-0.13659	0.028054	0.049984	-0.10974	0.019245	0.16586	-0.15921	-0.083154	0.052101
22	0.18938	-0.083686	-0.016386	0.16371	-0.11572	-0.26404	0.17609	-0.10028	-0.26002	0.20412	-0.046816	-0.15316	-0.008669	-0.046816	0.031938	-0.008669	0	0	0	-0.13658	0.028058	0.049974	-0.10975	0.019249	0.16585	-0.15922	-0.083148	0.05209
23	0.1984	-0.083707	-0.016382	0.16369	-0.11582	-0.26405	0.17607	-0.10038	-0.26002	0.2041	-0.046816	-0.15316	-0.008669	-0.046816	0.031938	-0.008669	0	0	0	-0.13658	0.028062	0.049963	-0.10976	0.019254	0.16584	-0.15923	-0.083141	0.052079
24	0.20741	-0.083727	-0.016378	0.16368	-0.11592	-0.26405	0.17606	-0.10047	-0.26003	0.20409	-0.046816	-0.15316	-0.008669	-0.046816	0.031938	-0.008669	0	0	0	-0.13658	0.028067	0.049952	-0.10977	0.01926	0.16583	-0.15924	-0.083133	0.052068
25	0.21643	-0.083748	-0.016374	0.16367	-0.11602	-0.26406	0.17604	-0.10057	-0.26003	0.20408	-0.046816	-0.15316	-0.008669	-0.046816	0.031938	-0.008669	0	0	0	-0.13657	0.028072	0.049941	-0.10978	0.019266	0.16583	-0.15924	-0.083126	0.052057
26	0.22545	-0.083769	-0.016369	0.16366	-0.11611	-0.26406	0.17603	-0.10067	-0.26004	0.20407	-0.046816	-0.15316	-0.008669	-0.046816	0.031938	-0.008669	0	0	0	-0.13657	0.028078	0.049929	-0.10979	0.019272	0.16582	-0.15925	-0.083117	0.052046
27	0.23447	-0.083791	-0.016364	0.16365	-0.11621	-0.26406	0.17603	-0.10077	-0.26004	0.20406	-0.046816	-0.15316	-0.008669	-0.046816	0.031938	-0.008669	0	0	0	-0.13657	0.028083	0.049918	-0.10981	0.01928	0.16581	-0.15926	-0.083109	0.052035
28	0.24349	-0.083812	-0.016359	0.16363	-0.11631	-0.26406	0.17602	-0.10087	-0.26004	0.20406	-0.046816	-0.15316	-0.008669	-0.046816	0.031938	-0.008669	0	0	0	-0.13657	0.02809	0.049906	-0.10982	0.019287	0.1658	-0.15927	-0.0831	0.052024
29	0.25251	-0.083834	-0.016353	0.16362	-0.11641	-0.26406	0.17602	-0.10096	-0.26004	0.20406	-0.046816	-0.15316	-0.008669	-0.046816	0.031938	-0.008669	0	0	0	-0.13656	0.028096	0.049894	-0.10983	0.019296	0.16579	-0.15928	-0.083091	0.052014
30	0.26152	-0.083856	-0.016347	0.16361	-0.1165	-0.26406	0.17601	-0.10106	-0.26004	0.20405	-0.046816	-0.15316	-0.008669	-0.046816	0.031938	-0.008669	0	0	0	-0.13656	0.028103	0.049882	-0.10985	0.019304	0.16579	-0.15929	-0.083081	0.052003
31	0.27054	-0.083878	-0.016341	0.16361	-0.1166	-0.26406	0.17601	-0.10116	-0.26003	0.20406	-0.046816	-0.15316	-0.008669	-0.046816	0.031938	-0.008669	0	0	0	-0.13656	0.02811	0.04987	-0.10986	0.019313	0.16578	-0.15929	-0.083072	0.051992
32	0.27956	-0.0839	-0.016334	0.1636	-0.1167	-0.26406	0.17601	-0.10125	-0.26003	0.20406	-0.046816	-0.15316	-0.008669	-0.046816	0.031938	-0.008669	0	0	0	-0.13656	0.028118	0.049858	-0.10988	0.019323	0.16577	-0.1593	-0.083061	0.051981
33	0.28858	-0.083922	-0.016328	0.16359	-0.11679	-0.26406	0.17602	-0.10135	-0.26003	0.20406	-0.046816	-0.15316	-0.008669	-0.046816	0.031938	-0.008669	0	0	0	-0.13655	0.028126	0.049845	-0.10989	0.019332	0.16576	-0.15931	-0.083051	0.05197
34	0.2976	-0.083944	-0.016321	0.16358	-0.11689	-0.26405	0.17602	-0.10145	-0.26003	0.20407	-0.046816	-0.15316	-0.008669	-0.046816	0.031938	-0.008669	0	0	0	-0.13655	0.028134	0.049833	-0.10991	0.019342	0.16575	-0.15932	-0.083041	0.05196
35	0.30661	-0.083967	-0.016314	0.16357	-0.11698	-0.26405	0.17603	-0.10154	-0.26002	0.20408	-0.046816	-0.15316	-0.008669	-0.046816	0.031938	-0.008669	0	0	0	-0.13655	0.028142	0.049821	-0.10992	0.019353	0.16574	-0.15933	-0.08303	0.051949
36	0.31563	-0.083989	-0.016307	0.16357	-0.11708	-0.26405	0.17604	-0.10164	-0.26002	0.20409	-0.046816	-0.15316	-0.008669	-0.046816	0.031938	-0.008669	0	0	0	-0.13655	0.028151	0.049808	-0.10994	0.019363	0.16574	-0.15934	-0.083019	0.051938
37	0.32465	-0.084012	-0.0163	0.16356	-0.11717	-0.26404	0.17605	-0.10174	-0.26001	0.2041	-0.046816	-0.15316	-0.008669	-0.046816	0.031938	-0.008669	0	0	0	-0.13655	0.028159	0.049796	-0.10995	0.019374	0.16573	-0.15935	-0.083008	0.051927
38	0.33367	-0.084034	-0.016293	0.16355	-0.11727	-0.26404	0.17606	-0.10183	-0.26001	0.20411	-0.046816	-0.15316	-0.008669	-0.046816	0.031938	-0.008669	0	0	0	-0.13655	0.028168	0.049783	-0.10997	0.019384	0.16572	-0.15936	-0.082997	0.051917
39	0.34269	-0.084057	-0.016285	0.16355	-0.11736	-0.26403	0.17608	-0.10193	-0.26	0.20413	-0.046816	-0.15316	-0.008669	-0.046816	0.031938	-0.008669	0	0	0	-0.13654	0.028178	0.049771	-0.10998	0.019395	0.16571	-0.15936	-0.082986	0.051906
40	0.3517	-0.084079	-0.016278	0.16354	-0.11746	-0.26403	0.17609	-0.10202	-0.25999	0.20414	-0.046816	-0.15316	-0.008669	-0.046816	0.031938	-0.008669	0	0	0	-0.13654	0.028187	0.049758	-0.11	0.019406	0.1657	-0.15937	-0.082974	0.051895
41	0.36072	-0.084102	-0.016271	0.16354	-0.11755	-0.26402	0.17611	-0.10212	-0.25999	0.20416	-0.046816	-0.15316	-0.008669	-0.046816	0.031938	-0.008669	0	0	0	-0.13654	0.028196	0.049746	-0.11001	0.019417	0.16569	-0.15938	-0.082963	0.051885
42	0.36974	-0.084124	-0.016264	0.16353	-0.11764	-0.26402	0.17613	-0.10222	-0.25998	0.20418	-0.046816	-0.15316	-0.008669	-0.046816	0.031938	-0.008669	0	0	0	-0.13654	0.028206	0.049733	-0.11003	0.019428	0.16568	-0.15939	-0.082952	0.051874
43	0.37876	-0.084146	-0.016257	0.16353	-0.11774	-0.26401	0.17615	-0.10231	-0.25998	0.2042	-0.046816	-0.15316	-0.008669	-0.046816	0.031938	-0.008669	0	0	0	-0.13654	0.028215	0.049721	-0.11004	0.019439	0.16568	-0.1594	-0.08294	0.051863
44	0.38778	-0.084169	-0.01625	0.16353	-0.11783	-0.26401	0.17617	-0.10241	-0.25997	0.20423	-0.046816	-0.15316	-0.008669	-0.046816	0.031938	-0.008669	0	0	0	-0.13654	0.028225	0.049709	-0.11006	0.01945	0.16567	-0.15941	-0.082929	0.051853
45	0.39679	-0.084191	-0.016243	0.16352	-0.11792	-0.264	0.17619	-0.1025	-0.25996	0.20425	-0.046816	-0.15316	-0.008669	-0.046816	0.031938	-0.008669	0	0	0	-0.13654	0.028235	0.049696	-0.11008	0.01946	0.16566	-0.15942	-0.082917	0.051842
46	0.40581	-0.084213	-0.016236	0.16352	-0.11801	-0.264	0.17622	-0.1026	-0.25996	0.20427	-0.046816	-0.15316	-0.008669	-0.046816	0.031938	-0.008669	0	0	0	-0.13653	0.028245	0.049684	-0.11009	0.019471	0.16565	-0.15942	-0.082906	0.051831
